# xmcd
#
# Track frame offsets:
#	150
#	11170
#	30030
#	51777
#	63431
#
# Disc length: 1056 seconds
#
# Revision: 0
# Processed by: cddbd v1.5.2PL0 Copyright (c) Steve Scherf et al.
# Submitted via: dBpowerAMP V4.0
#
DISCID=33041e05
DTITLE=lloyd mcgarity - unchained
DYEAR=2007
DGENRE=Country
TTITLE0=dont let her go to bakersfield
TTITLE1=love leads you bakc home again
TTITLE2=the bus
TTITLE3=otta control honky tonk girl
TTITLE4=unchainedmemories
EXTD=cd my band recoreded at a studio
EXTT0=
EXTT1=
EXTT2=
EXTT3=
EXTT4=
PLAYORDER=
